<?xml version="1.0" standalone="no"?>
<!DOCTYPE svg PUBLIC "-//W3C//DTD SVG 20010904//EN"
 "http://www.w3.org/TR/2001/REC-SVG-20010904/DTD/svg10.dtd">
<svg version="1.0" xmlns="http://www.w3.org/2000/svg"
 width="400.000000pt" height="400.000000pt" viewBox="0 0 400.000000 400.000000"
 preserveAspectRatio="xMidYMid meet">

<g transform="translate(0.000000,400.000000) scale(0.100000,-0.100000)"
fill="#000000" stroke="none">
<path d="M2045 3647 c-26 -56 -44 -167 -28 -167 5 0 15 24 22 54 6 29 25 74
41 99 20 33 24 44 13 40 -12 -5 -15 -2 -10 10 3 9 2 17 -4 17 -5 0 -21 -24
-34 -53z"/>
<path d="M1780 3613 c96 -63 160 -170 189 -318 9 -47 19 -85 24 -85 4 0 6 30
6 68 -2 77 -15 228 -17 195 -3 -38 -19 -34 -31 7 -6 22 -15 39 -19 37 -4 -1
-26 17 -49 40 -42 42 -77 64 -123 78 -16 4 -9 -4 20 -22z"/>
<path d="M1700 3618 c3 -3 21 -10 40 -17 19 -6 30 -7 25 -2 -6 5 -23 13 -40
17 -16 4 -28 5 -25 2z"/>
<path d="M1645 3531 c121 -35 199 -94 250 -188 25 -47 26 -47 20 -14 -8 49
-61 127 -109 160 -53 37 -126 61 -179 60 l-42 0 60 -18z"/>
<path d="M1429 3513 c-28 -3 -51 -18 -96 -61 -33 -31 -79 -72 -102 -90 -40
-33 -55 -60 -26 -49 34 14 21 -14 -25 -53 -56 -47 -64 -66 -24 -56 15 4 40 9
58 12 l31 5 -24 -21 c-19 -16 -22 -23 -12 -30 10 -5 -8 -22 -60 -56 -40 -27
-75 -55 -77 -63 -3 -8 0 -11 7 -7 22 14 33 -5 15 -25 -17 -19 -16 -19 17 -13
l34 7 -19 -21 c-13 -15 -15 -22 -6 -22 9 0 7 -7 -7 -22 -31 -35 -73 -101 -73
-115 0 -7 9 -13 20 -13 28 0 26 -7 -25 -61 -49 -52 -50 -55 -35 -93 7 -20 5
-33 -12 -61 -17 -30 -19 -41 -10 -61 7 -13 15 -24 20 -24 15 0 12 -137 -3
-150 -19 -16 -62 -5 -68 18 -4 14 -5 14 -5 -3 0 -11 3 -29 7 -40 7 -18 -7 -45
-23 -45 -16 0 -25 40 -15 69 9 25 8 35 -3 49 -8 9 -18 25 -21 35 -4 9 -14 17
-23 17 -13 0 -15 -6 -11 -27 3 -16 9 -57 13 -93 3 -36 11 -73 16 -84 16 -29
-5 -39 -30 -14 -17 19 -41 112 -42 161 0 5 -4 5 -10 2 -5 -3 -10 -16 -10 -28
0 -12 -16 -44 -35 -71 -40 -56 -44 -76 -15 -76 17 0 19 -6 17 -50 -2 -30 -10
-57 -22 -70 -18 -20 -18 -20 4 -20 21 0 20 -3 -13 -42 -39 -45 -46 -70 -18
-67 30 3 30 0 11 -51 -10 -28 -19 -62 -19 -77 0 -25 2 -24 54 26 47 43 76 62
76 47 0 -2 -15 -41 -34 -87 -42 -106 -51 -146 -38 -173 6 -11 13 -42 17 -68 3
-27 10 -48 15 -48 4 0 17 15 29 33 11 17 21 28 21 22 1 -5 3 -45 4 -88 2 -43
8 -83 13 -88 6 -6 20 6 39 33 l29 43 6 -74 c5 -52 12 -77 23 -83 9 -5 16 -20
16 -34 0 -55 49 -108 64 -69 10 26 33 16 40 -17 6 -30 7 -30 25 -14 18 16 19
15 26 -21 10 -52 14 -56 40 -39 23 15 24 15 34 -35 6 -27 11 -55 11 -62 0 -7
9 -27 20 -44 18 -30 22 -32 45 -21 35 16 46 3 85 -99 33 -87 48 -103 127 -137
28 -12 53 -16 76 -12 42 8 97 -3 97 -19 0 -7 26 -25 58 -40 31 -16 65 -32 74
-37 10 -4 36 -8 58 -8 30 0 46 7 70 30 35 34 52 36 104 15 20 -9 42 -13 47 -9
6 3 25 -4 42 -17 24 -18 46 -24 87 -24 40 -1 69 -9 104 -28 68 -37 111 -21
141 50 8 18 21 33 30 33 10 0 26 21 40 55 22 48 28 55 53 55 32 0 52 16 52 41
0 24 -40 32 -62 12 -32 -29 -112 -27 -243 6 -66 16 -109 30 -95 31 24 2 24 2
-5 12 -16 5 -106 12 -200 15 -95 3 -173 10 -176 16 -5 6 -31 4 -75 -6 -82 -18
-94 -15 -27 7 76 25 244 46 350 44 l98 -2 -75 -6 -75 -6 85 -4 c47 -2 108 -4
135 -4 50 -2 116 -12 145 -23 8 -4 21 -5 28 -4 6 1 12 -3 12 -9 0 -6 5 -8 11
-4 6 3 14 1 18 -5 4 -6 37 -15 74 -19 36 -5 64 -4 61 0 -3 5 6 6 21 2 32 -8
61 16 70 57 6 25 9 27 32 18 38 -14 59 11 90 108 24 80 26 83 44 67 24 -22 35
-12 43 37 6 35 10 40 27 36 16 -4 21 1 26 24 7 35 10 35 41 7 23 -23 24 -23
38 -4 7 11 17 36 20 55 3 20 13 47 22 61 9 14 15 44 14 73 -1 33 3 50 14 54 7
3 14 14 14 24 0 11 14 33 30 49 17 16 30 36 30 45 0 8 6 15 13 15 7 0 30 17
50 38 47 48 47 72 2 181 -25 60 -32 88 -25 101 7 13 3 26 -16 51 -36 47 -74
129 -74 159 0 14 14 39 34 60 18 19 38 50 45 69 16 50 14 136 -4 151 -8 7 -15
9 -15 4 -4 -77 -21 -159 -36 -176 -24 -27 -71 -47 -95 -41 -25 7 -26 45 -1 41
30 -5 82 40 82 70 0 33 -19 64 -27 44 -3 -7 -16 -25 -29 -40 l-24 -27 12 30
c6 17 27 50 45 74 18 24 33 56 33 70 l1 26 14 -25 c14 -25 14 -25 15 15 0 22
-7 51 -16 64 -12 17 -15 36 -11 72 3 27 2 49 -3 49 -4 0 -15 3 -23 6 -11 4
-22 -14 -43 -70 -16 -42 -31 -76 -35 -76 -3 0 -9 17 -13 38 -9 59 -8 72 9 66
10 -4 15 0 15 14 0 31 -18 72 -31 72 -7 0 -52 42 -101 94 -80 86 -152 145
-163 134 -2 -2 30 -32 71 -67 42 -35 73 -65 70 -68 -3 -3 -14 0 -23 7 -10 7
16 -20 57 -60 77 -73 65 -77 -27 -8 -61 46 -138 78 -191 78 -20 0 -57 8 -82
16 -69 25 -210 23 -285 -4 -32 -12 -61 -22 -64 -22 -14 0 88 67 147 96 74 37
62 45 -20 14 -68 -26 -77 -25 -43 2 44 34 149 68 212 68 42 0 54 3 46 11 -8 8
-45 10 -110 7 -108 -5 -168 -25 -237 -80 -58 -47 -29 -1 36 56 29 25 47 46 40
46 -7 0 -48 -34 -92 -76 -44 -42 -80 -73 -80 -68 0 13 75 140 108 182 44 57
48 66 24 53 -28 -15 -128 -129 -172 -195 -19 -29 -41 -62 -48 -72 -23 -35 -3
45 29 115 16 35 28 66 25 68 -8 8 -100 -104 -120 -147 l-21 -45 -3 43 c-4 52
-22 56 -23 5 l0 -38 -14 50 c-7 28 -19 64 -26 80 l-12 30 -7 -30 c-4 -16 -8
-22 -9 -12 0 10 -5 16 -11 12 -5 -3 -19 13 -30 35 -40 79 -131 148 -235 179
-69 21 -72 24 -35 31 l35 6 -35 17 c-19 10 -48 25 -63 33 -15 9 -62 18 -103
21 -41 3 -74 9 -74 13 0 4 38 20 85 35 46 15 82 31 80 36 -3 4 1 10 7 13 7 4
-11 4 -41 1 -30 -2 -50 -1 -45 4 17 16 107 41 173 48 l66 7 -40 12 c-38 12
-130 15 -206 7z m1277 -698 c56 -29 180 -125 161 -125 -3 0 -29 16 -58 36 -30
20 -94 56 -144 80 -75 36 -85 44 -59 44 17 0 62 -16 100 -35z m-266 5 c0 -5
-19 -9 -42 -9 -40 1 -41 2 -13 9 44 11 55 11 55 0z m-56 -101 c-2 -4 -28 -15
-57 -24 -28 -10 -82 -34 -118 -56 -36 -21 -89 -47 -118 -59 -69 -27 -170 -27
-230 0 -56 26 -138 86 -152 112 -10 18 -8 19 12 13 12 -4 44 -23 71 -42 61
-44 136 -73 191 -73 46 0 130 36 221 94 58 37 71 43 61 26 -3 -5 8 -4 24 3 33
14 103 18 95 6z m-843 -44 c24 -9 73 -33 109 -55 36 -22 121 -62 189 -91 99
-41 132 -50 161 -45 37 6 169 60 297 123 54 26 77 33 85 25 8 -8 17 -8 30 -1
11 6 45 12 76 13 31 2 64 6 72 9 25 9 89 13 84 5 -3 -4 2 -8 11 -8 20 0 91
-36 100 -51 15 -23 -7 -21 -66 6 -50 22 -63 25 -70 14 -7 -11 0 -16 26 -23 19
-5 35 -13 35 -16 0 -4 -37 -11 -82 -14 -99 -9 -189 -38 -318 -101 -121 -60
-71 -49 78 16 163 72 271 92 368 68 32 -8 44 -16 44 -30 0 -24 -36 -48 -83
-56 -26 -4 -34 -8 -25 -14 21 -13 33 -11 72 16 43 29 56 31 56 9 0 -8 -4 -12
-10 -9 -5 3 -10 2 -10 -3 0 -15 -72 -40 -147 -52 -37 -6 -81 -15 -96 -22 -15
-6 -30 -8 -33 -5 -3 3 19 14 48 26 67 25 32 27 -42 1 -30 -10 -56 -17 -57 -16
-7 7 40 39 83 57 l49 20 -46 -5 c-61 -7 -142 -38 -209 -80 -112 -71 -152 -88
-187 -83 -29 5 -33 3 -33 -15 0 -34 -12 -13 -26 44 -11 48 -12 50 -13 18 -1
-36 -33 -71 -46 -50 -13 22 -18 120 -6 120 6 0 14 -7 17 -15 10 -26 24 -16 20
14 -3 28 -2 29 53 33 42 3 88 19 186 66 72 34 155 71 185 82 l55 20 -55 -5
c-30 -3 -68 -8 -84 -11 -20 -5 -27 -4 -22 5 11 17 2 14 -92 -33 -153 -76 -269
-118 -305 -110 -34 7 -131 48 -291 121 -79 37 -112 47 -170 51 -83 5 -80 -5 8
-37 33 -12 110 -49 171 -81 91 -49 124 -61 176 -66 91 -9 109 -23 109 -82 0
-28 -6 -57 -15 -68 -15 -19 -15 -19 -30 0 -8 11 -15 34 -15 52 0 18 -4 36 -10
39 -6 4 -10 -11 -11 -37 0 -24 -4 -52 -9 -63 -7 -17 -9 -14 -10 15 -2 35 -2
35 -11 8 -9 -25 -14 -27 -58 -24 -66 5 -120 35 -208 119 -61 58 -71 65 -49 33
45 -66 37 -70 -43 -22 -31 19 -80 44 -109 55 -122 48 -162 83 -162 141 0 16 6
20 35 20 22 0 35 -5 35 -13 0 -22 35 -44 81 -50 25 -3 53 -9 62 -13 11 -4 17
-1 17 9 0 9 -18 19 -45 27 -26 7 -54 24 -65 38 -17 21 -25 23 -55 18 -44 -9
-45 1 -2 19 44 20 192 19 248 0z m1062 -2 c-7 -2 -21 -2 -30 0 -10 3 -4 5 12
5 17 0 24 -2 18 -5z m227 -164 c0 -42 -5 -55 -29 -80 -16 -16 -38 -29 -47 -29
-13 0 -6 11 25 38 41 36 43 41 40 84 -2 25 -1 44 4 41 4 -2 7 -27 7 -54z m171
-55 c-6 -22 -11 -59 -12 -84 l-2 -45 -8 45 c-4 25 -8 72 -8 105 l-1 59 21 -20
c18 -19 19 -26 10 -60z m-114 -81 c-3 -21 -8 -47 -13 -58 -7 -18 -5 -18 18 3
31 29 41 19 63 -63 19 -74 20 -124 3 -107 -21 21 -26 13 -16 -30 8 -36 1 -154
-7 -123 -34 124 -69 215 -96 245 -26 28 -29 37 -20 52 9 14 8 16 -4 12 -8 -4
-15 -2 -15 4 0 10 78 102 87 102 3 0 3 -17 0 -37z m-26 -195 c9 -17 7 -18 -17
-12 l-27 7 26 -35 c15 -19 27 -45 27 -57 0 -19 -3 -20 -22 -10 -19 10 -20 9
-13 -7 14 -35 24 -88 17 -94 -4 -3 -15 -22 -24 -42 -13 -28 -30 -43 -71 -63
-62 -29 -93 -31 -145 -9 -20 8 -55 19 -77 24 -35 6 -30 7 30 7 45 -1 80 4 98
14 28 15 27 15 -35 11 l-63 -4 72 66 c77 72 119 141 109 181 -7 29 5 38 55 38
35 0 38 2 27 16 -12 14 -11 15 5 2 10 -8 23 -23 28 -33z m-401 7 c0 -8 8 -15
17 -15 28 0 -26 -49 -61 -55 -38 -7 -88 6 -94 25 -4 10 3 12 25 7 24 -5 34 -1
55 24 28 31 58 39 58 14z m-926 -50 c21 -19 45 -35 54 -36 10 0 12 -3 5 -5
-19 -8 -80 25 -98 52 -23 35 -4 29 39 -11z m46 20 c14 -8 40 -14 58 -15 17 0
32 -4 32 -10 0 -5 -18 -10 -39 -10 -28 0 -48 7 -68 25 -31 27 -22 32 17 10z
m756 -63 c-6 -5 -56 21 -56 29 0 5 13 0 29 -9 16 -9 28 -18 27 -20z m-1080
-40 c27 -26 75 -65 107 -86 31 -22 57 -44 57 -49 0 -15 -89 0 -119 20 -23 15
-25 15 -13 0 8 -9 33 -23 57 -33 35 -13 51 -14 74 -6 36 13 41 1 8 -21 -54
-35 -107 -29 -177 20 -23 17 -24 17 -11 0 9 -11 10 -17 2 -17 -15 0 -49 56
-62 104 -12 45 -3 116 16 116 7 0 35 -21 61 -48z m1298 23 c-7 -18 -66 -55
-85 -54 -8 0 0 7 16 14 17 7 39 23 49 34 23 25 27 26 20 6z m37 -23 c-13 -25
-40 -46 -48 -38 -7 7 36 56 49 56 5 0 4 -8 -1 -18z m-541 -17 c-33 -19 -50
-18 -26 0 11 8 27 15 35 15 10 -1 7 -6 -9 -15z m180 -30 c51 -50 195 -140 240
-150 33 -7 41 -25 12 -25 -41 0 -112 34 -162 76 -29 25 -64 51 -79 59 -14 7
-42 29 -60 49 -54 56 -8 48 49 -9z m-96 19 c27 -10 18 -24 -14 -22 -30 2 -36
8 -23 21 8 9 17 9 37 1z m-105 -45 c-37 -13 -56 -16 -64 -8 -7 7 -5 8 5 5 8
-4 31 2 50 12 19 10 41 16 48 14 8 -3 -10 -13 -39 -23z m501 -9 c-8 -5 -37 -9
-65 -8 l-50 1 55 7 c30 4 60 7 65 8 6 1 3 -3 -5 -8z m-464 -20 c-26 -10 -56
-26 -66 -35 -15 -14 -21 -14 -39 -3 -19 12 -37 38 -26 38 3 0 14 -5 24 -12 15
-9 28 -7 67 10 27 12 58 21 69 21 11 0 -2 -8 -29 -19z m-176 -31 c25 -11 55
-29 67 -41 l22 -20 33 26 c41 31 109 56 151 56 16 0 45 -10 65 -22 33 -20 34
-22 13 -29 -20 -8 -20 -10 16 -42 29 -27 38 -45 44 -83 l7 -49 -1 54 c-1 68
15 76 37 19 30 -74 6 -122 -96 -188 -34 -23 -86 -95 -75 -106 11 -11 34 9 30
26 -4 14 2 21 21 26 45 11 92 -5 139 -46 25 -22 49 -40 54 -40 13 0 61 -121
79 -197 9 -37 16 -102 17 -143 l2 -75 -47 2 c-25 0 -54 5 -63 10 -12 7 2 9 42
7 41 -3 51 -1 33 5 -14 4 -44 18 -67 29 -37 20 -43 27 -53 74 -6 29 -17 64
-25 78 -12 23 -13 19 -8 -39 4 -36 2 -62 -3 -59 -68 32 -108 47 -151 57 -50
12 -53 15 -54 44 -1 18 -5 43 -9 57 -7 23 -8 23 -9 4 -1 -18 -9 -23 -48 -29
-27 -3 -75 -13 -108 -22 -74 -18 -121 -7 -159 38 -30 35 -32 23 -11 -46 8 -27
12 -51 10 -53 -2 -3 -20 11 -39 30 -41 41 -60 104 -52 171 14 103 34 117 100
72 l37 -25 -7 22 c-11 38 -42 75 -94 113 -111 81 -142 221 -67 297 61 61 145
74 227 37z m694 -81 c9 -12 14 -24 11 -26 -5 -5 -54 31 -55 41 0 16 30 6 44
-15z m-1163 -12 c-14 -14 -29 -22 -38 -19 -13 5 -11 10 8 24 36 28 57 24 30
-5z m1040 -85 c71 -71 82 -111 17 -59 -24 19 -55 42 -70 51 -28 17 -40 67 -17
67 6 0 37 -27 70 -59z m-94 -115 c-3 -8 5 -24 19 -37 23 -22 32 -49 16 -49 -4
0 -14 6 -21 13 -11 10 -11 8 -1 -12 12 -23 9 -22 -29 8 l-42 34 27 28 c31 32
39 36 31 15z m44 -23 c13 -16 12 -17 -3 -4 -10 7 -18 15 -18 17 0 8 8 3 21
-13z m-748 -101 c-47 -43 -66 -89 -71 -169 -7 -112 -25 -90 -20 25 3 67 10
109 23 135 17 34 22 37 59 37 l40 0 -31 -28z m850 -99 c8 -16 20 -46 27 -68
16 -51 28 -64 40 -45 7 11 10 3 10 -28 0 -26 -4 -41 -10 -37 -6 4 -10 -13 -10
-44 0 -52 -14 -101 -28 -101 -5 0 -12 46 -15 103 -6 90 -16 145 -41 225 -10
32 10 28 27 -5z m94 -220 c-2 -27 -3 -5 -3 47 0 52 1 74 3 48 2 -27 2 -69 0
-95z m-302 -136 c207 -58 251 -76 226 -92 -11 -6 -52 3 -171 38 -137 40 -243
50 -460 43 -107 -3 -217 -8 -245 -10 l-50 -4 35 15 c79 34 160 42 370 39 182
-3 215 -6 295 -29z"/>
<path d="M1596 2492 c115 -74 154 -94 172 -87 13 5 5 12 -33 28 -28 12 -81 39
-118 60 -87 48 -96 47 -21 -1z"/>
<path d="M2158 2413 c7 -3 16 -2 19 1 4 3 -2 6 -13 5 -11 0 -14 -3 -6 -6z"/>
<path d="M2093 2403 c9 -2 23 -2 30 0 6 3 -1 5 -18 5 -16 0 -22 -2 -12 -5z"/>
<path d="M2762 2130 c0 -50 1 -52 9 -23 6 19 5 40 0 55 -8 18 -10 12 -9 -32z"/>
<path d="M2063 1875 c-18 -8 -33 -17 -33 -20 0 -3 10 0 22 6 12 7 47 15 78 19
l55 7 -45 1 c-25 1 -60 -5 -77 -13z"/>
<path d="M1720 1845 c-25 -14 -25 -14 10 -8 l35 6 -35 -25 c-29 -20 -36 -31
-38 -66 -4 -55 24 -84 104 -107 32 -9 79 -28 103 -42 53 -31 61 -23 61 61 0
81 -28 138 -84 171 -49 29 -116 33 -156 10z"/>
<path d="M1920 1856 c0 -2 8 -10 18 -17 15 -13 16 -12 3 4 -13 16 -21 21 -21
13z"/>
<path d="M1991 1830 c-13 -11 -19 -20 -14 -20 6 0 18 9 28 20 23 25 17 25 -14
0z"/>
<path d="M2058 1809 c-21 -10 -42 -28 -48 -39 -14 -26 -24 -132 -16 -164 l6
-26 38 25 c20 13 64 31 98 38 74 18 112 41 121 76 11 40 4 64 -23 89 -33 29
-122 30 -176 1z"/>
<path d="M1837 1589 c43 -44 65 -50 37 -11 -8 12 -30 29 -47 38 -31 16 -31 15
10 -27z"/>
<path d="M2092 1597 c-26 -27 -29 -45 -5 -26 15 12 16 12 10 -4 -4 -11 -9 -31
-12 -45 -4 -20 0 -17 14 13 22 46 25 59 11 50 -14 -9 -13 8 2 23 7 7 10 12 7
12 -3 0 -15 -10 -27 -23z"/>
<path d="M2382 1420 c9 -27 28 -50 28 -35 0 9 -30 65 -35 65 -2 0 1 -14 7 -30z"/>
<path d="M2473 3457 c-62 -18 -63 -27 -2 -28 30 0 78 -4 107 -8 56 -8 73 3 20
14 -57 11 -68 16 -63 26 8 11 -8 10 -62 -4z"/>
<path d="M2166 3379 c-10 -17 -16 -33 -13 -36 3 -3 13 9 22 27 21 41 14 48 -9
9z"/>
<path d="M2560 3243 c19 -9 73 -37 118 -61 76 -40 82 -42 68 -19 -18 27 -132
84 -186 92 l-35 6 35 -18z"/>
<path d="M2720 3092 c1 -8 94 -82 104 -82 3 0 6 8 6 18 0 12 -19 27 -55 45
-30 15 -55 23 -55 19z"/>
<path d="M904 2754 c3 -9 6 -18 6 -20 0 -2 5 -4 10 -4 6 0 10 9 10 20 0 12 -7
20 -16 20 -11 0 -14 -5 -10 -16z"/>
<path d="M825 2630 c-9 -16 -20 -30 -25 -30 -14 0 -12 -51 4 -79 l13 -24 7 26
c3 14 18 40 32 57 23 27 25 35 16 56 -15 32 -28 30 -47 -6z"/>
<path d="M3171 2643 c0 -5 4 -17 9 -28 8 -18 9 -17 9 8 1 15 -3 27 -9 27 -5 0
-10 -3 -9 -7z"/>
</g>
</svg>
